<?xml version="1.0" encoding="UTF-8"?>
<svg xmlns="http://www.w3.org/2000/svg" xmlns:xlink="http://www.w3.org/1999/xlink" width="44.239" height="33.467" viewBox="0 0 44.239 33.467">
<defs>
<clipPath id="clip-0">
<path clip-rule="nonzero" d="M 17 21 L 27 21 L 27 31 L 17 31 Z M 17 21 "/>
</clipPath>
<clipPath id="clip-1">
<path clip-rule="nonzero" d="M 26.347656 25.917969 C 26.347656 23.585938 24.453125 21.691406 22.117188 21.691406 C 19.785156 21.691406 17.890625 23.585938 17.890625 25.917969 C 17.890625 28.253906 19.785156 30.144531 22.117188 30.144531 C 24.453125 30.144531 26.347656 28.253906 26.347656 25.917969 Z M 26.347656 25.917969 "/>
</clipPath>
<clipPath id="clip-2">
<path clip-rule="nonzero" d="M 6 10 L 38 10 L 38 33.46875 L 6 33.46875 Z M 6 10 "/>
</clipPath>
</defs>
<path fill="none" stroke-width="0.79701" stroke-linecap="round" stroke-linejoin="miter" stroke="rgb(0%, 0%, 0%)" stroke-opacity="1" stroke-miterlimit="10" d="M -0.0018125 10.011344 L -0.0018125 -4.957406 " transform="matrix(1, 0, 0, -1, 22.119, 16.734)"/>
<path fill="none" stroke-width="0.79701" stroke-linecap="round" stroke-linejoin="miter" stroke="rgb(0%, 0%, 0%)" stroke-opacity="1" stroke-miterlimit="10" d="M -1.701031 11.710562 L -18.798688 11.710562 " transform="matrix(1, 0, 0, -1, 22.119, 16.734)"/>
<path fill="none" stroke-width="0.79701" stroke-linecap="round" stroke-linejoin="miter" stroke="rgb(0%, 0%, 0%)" stroke-opacity="1" stroke-miterlimit="10" d="M 18.798969 11.710562 L 1.701312 11.710562 " transform="matrix(1, 0, 0, -1, 22.119, 16.734)"/>
<path fill="none" stroke-width="0.79701" stroke-linecap="round" stroke-linejoin="miter" stroke="rgb(0%, 0%, 0%)" stroke-opacity="1" stroke-miterlimit="10" d="M 18.798969 11.710562 L 1.701312 11.710562 " transform="matrix(1, 0, 0, -1, 22.119, 16.734)"/>
<path fill="none" stroke-width="0.79701" stroke-linecap="round" stroke-linejoin="miter" stroke="rgb(0%, 0%, 0%)" stroke-opacity="1" stroke-miterlimit="10" d="M -4.228375 -9.187875 L -18.798688 -9.187875 " transform="matrix(1, 0, 0, -1, 22.119, 16.734)"/>
<path fill="none" stroke-width="0.79701" stroke-linecap="round" stroke-linejoin="miter" stroke="rgb(0%, 0%, 0%)" stroke-opacity="1" stroke-miterlimit="10" d="M 18.798969 -9.187875 L 4.228656 -9.187875 " transform="matrix(1, 0, 0, -1, 22.119, 16.734)"/>
<path fill="none" stroke-width="0.79701" stroke-linecap="round" stroke-linejoin="miter" stroke="rgb(0%, 0%, 0%)" stroke-opacity="1" stroke-miterlimit="10" d="M 18.798969 -9.187875 L 4.228656 -9.187875 " transform="matrix(1, 0, 0, -1, 22.119, 16.734)"/>
<path fill-rule="nonzero" fill="rgb(0%, 0%, 0%)" fill-opacity="1" stroke-width="0.79701" stroke-linecap="butt" stroke-linejoin="miter" stroke="rgb(0%, 0%, 0%)" stroke-opacity="1" stroke-miterlimit="10" d="M 1.701312 0.00146875 C 1.701312 0.938969 0.939594 1.700687 -0.0018125 1.700687 C -0.939313 1.700687 -1.701031 0.938969 -1.701031 0.00146875 C -1.701031 -0.939938 -0.939313 -1.701656 -0.0018125 -1.701656 C 0.939594 -1.701656 1.701312 -0.939938 1.701312 0.00146875 Z M 1.701312 0.00146875 " transform="matrix(1, 0, 0, -1, 22.119, 5.021)"/>
<g clip-path="url(#clip-0)">
<g clip-path="url(#clip-1)">
<path fill="none" stroke-width="0.79701" stroke-linecap="butt" stroke-linejoin="miter" stroke="rgb(0%, 0%, 0%)" stroke-opacity="1" stroke-miterlimit="10" d="M -0.0018125 4.227594 L -0.0018125 -4.225531 M -4.228375 0.00103125 L 4.228656 0.00103125 " transform="matrix(1, 0, 0, -1, 22.119, 25.919)"/>
</g>
</g>
<g clip-path="url(#clip-2)">
<path fill="none" stroke-width="0.79701" stroke-linecap="butt" stroke-linejoin="miter" stroke="rgb(0%, 0%, 0%)" stroke-opacity="1" stroke-miterlimit="10" d="M 4.228656 0.00103125 C 4.228656 2.333062 2.334125 4.227594 -0.0018125 4.227594 C -2.333844 4.227594 -4.228375 2.333062 -4.228375 0.00103125 C -4.228375 -2.334906 -2.333844 -4.225531 -0.0018125 -4.225531 C 2.334125 -4.225531 4.228656 -2.334906 4.228656 0.00103125 Z M 4.228656 0.00103125 " transform="matrix(1, 0, 0, -1, 22.119, 25.919)"/>
</g>
</svg>
