<?xml version="1.0" encoding="UTF-8"?>
<svg xmlns="http://www.w3.org/2000/svg" xmlns:xlink="http://www.w3.org/1999/xlink" width="39.186" height="38.787" viewBox="0 0 39.186 38.787">
<defs>
<clipPath id="clip-0">
<path clip-rule="nonzero" d="M 4 20 L 35 20 L 35 38.785156 L 4 38.785156 Z M 4 20 "/>
</clipPath>
</defs>
<path fill="none" stroke-width="0.79701" stroke-linecap="round" stroke-linejoin="miter" stroke="rgb(0%, 0%, 0%)" stroke-opacity="1" stroke-miterlimit="10" d="M 0.00075 12.471344 L 0.00075 -16.270844 " transform="matrix(1, 0, 0, -1, 19.593, 19.194)"/>
<path fill="none" stroke-width="0.79701" stroke-linecap="round" stroke-linejoin="miter" stroke="rgb(0%, 0%, 0%)" stroke-opacity="1" stroke-miterlimit="10" d="M -1.702375 14.174469 L -16.272687 14.174469 " transform="matrix(1, 0, 0, -1, 19.593, 19.194)"/>
<path fill="none" stroke-width="0.79701" stroke-linecap="round" stroke-linejoin="miter" stroke="rgb(0%, 0%, 0%)" stroke-opacity="1" stroke-miterlimit="10" d="M 16.274188 14.174469 L 1.699969 14.174469 " transform="matrix(1, 0, 0, -1, 19.593, 19.194)"/>
<path fill="none" stroke-width="0.79701" stroke-linecap="round" stroke-linejoin="miter" stroke="rgb(0%, 0%, 0%)" stroke-opacity="1" stroke-miterlimit="10" d="M 16.274188 14.174469 L 1.699969 14.174469 " transform="matrix(1, 0, 0, -1, 19.593, 19.194)"/>
<path fill="none" stroke-width="0.79701" stroke-linecap="round" stroke-linejoin="miter" stroke="rgb(0%, 0%, 0%)" stroke-opacity="1" stroke-miterlimit="10" d="M 0.00075 -2.098969 L 0.00075 -16.270844 " transform="matrix(1, 0, 0, -1, 19.593, 19.194)"/>
<path fill="none" stroke-width="0.79701" stroke-linecap="round" stroke-linejoin="miter" stroke="rgb(0%, 0%, 0%)" stroke-opacity="1" stroke-miterlimit="10" d="M 0.00075 -2.098969 L -16.272687 -2.098969 " transform="matrix(1, 0, 0, -1, 19.593, 19.194)"/>
<path fill="none" stroke-width="0.79701" stroke-linecap="round" stroke-linejoin="miter" stroke="rgb(0%, 0%, 0%)" stroke-opacity="1" stroke-miterlimit="10" d="M 16.274188 -2.098969 L 0.00075 -2.098969 " transform="matrix(1, 0, 0, -1, 19.593, 19.194)"/>
<path fill="none" stroke-width="0.79701" stroke-linecap="round" stroke-linejoin="miter" stroke="rgb(0%, 0%, 0%)" stroke-opacity="1" stroke-miterlimit="10" d="M 16.274188 -2.098969 L 0.00075 -2.098969 " transform="matrix(1, 0, 0, -1, 19.593, 19.194)"/>
<path fill="none" stroke-width="0.79701" stroke-linecap="round" stroke-linejoin="miter" stroke="rgb(0%, 0%, 0%)" stroke-opacity="1" stroke-miterlimit="10" d="M 0.00075 -16.270844 L -16.272687 -16.270844 " transform="matrix(1, 0, 0, -1, 19.593, 19.194)"/>
<path fill="none" stroke-width="0.79701" stroke-linecap="round" stroke-linejoin="miter" stroke="rgb(0%, 0%, 0%)" stroke-opacity="1" stroke-miterlimit="10" d="M 16.274188 -16.270844 L 0.00075 -16.270844 " transform="matrix(1, 0, 0, -1, 19.593, 19.194)"/>
<path fill="none" stroke-width="0.79701" stroke-linecap="round" stroke-linejoin="miter" stroke="rgb(0%, 0%, 0%)" stroke-opacity="1" stroke-miterlimit="10" d="M 16.274188 -16.270844 L 0.00075 -16.270844 " transform="matrix(1, 0, 0, -1, 19.593, 19.194)"/>
<path fill-rule="nonzero" fill="rgb(0%, 0%, 0%)" fill-opacity="1" stroke-width="0.79701" stroke-linecap="butt" stroke-linejoin="miter" stroke="rgb(0%, 0%, 0%)" stroke-opacity="1" stroke-miterlimit="10" d="M 1.699969 0.00146875 C 1.699969 0.938969 0.93825 1.700687 0.00075 1.700687 C -0.940656 1.700687 -1.702375 0.938969 -1.702375 0.00146875 C -1.702375 -0.939938 -0.940656 -1.701656 0.00075 -1.701656 C 0.93825 -1.701656 1.699969 -0.939938 1.699969 0.00146875 Z M 1.699969 0.00146875 " transform="matrix(1, 0, 0, -1, 19.593, 5.021)"/>
<path fill="none" stroke-width="0.79701" stroke-linecap="butt" stroke-linejoin="miter" stroke="rgb(0%, 0%, 0%)" stroke-opacity="1" stroke-miterlimit="10" d="M -3.487531 -3.48825 L 3.485125 3.488312 M -3.487531 3.488312 L 3.485125 -3.48825 " transform="matrix(1, 0, 0, -1, 19.593, 21.293)"/>
<g clip-path="url(#clip-0)">
<path fill="none" stroke-width="0.79701" stroke-linecap="butt" stroke-linejoin="miter" stroke="rgb(0%, 0%, 0%)" stroke-opacity="1" stroke-miterlimit="10" d="M -3.487531 -3.487125 L 3.485125 3.485531 M -3.487531 3.485531 L 3.485125 -3.487125 " transform="matrix(1, 0, 0, -1, 19.593, 35.466)"/>
</g>
</svg>
