<?xml version="1.0" encoding="UTF-8"?>
<svg xmlns="http://www.w3.org/2000/svg" xmlns:xlink="http://www.w3.org/1999/xlink" width="44.239" height="51.838" viewBox="0 0 44.239 51.838">
<defs>
<clipPath id="clip-0">
<path clip-rule="nonzero" d="M 17 40 L 27 40 L 27 49 L 17 49 Z M 17 40 "/>
</clipPath>
<clipPath id="clip-1">
<path clip-rule="nonzero" d="M 26.347656 44.289062 C 26.347656 41.957031 24.453125 40.0625 22.117188 40.0625 C 19.785156 40.0625 17.890625 41.957031 17.890625 44.289062 C 17.890625 46.625 19.785156 48.515625 22.117188 48.515625 C 24.453125 48.515625 26.347656 46.625 26.347656 44.289062 Z M 26.347656 44.289062 "/>
</clipPath>
<clipPath id="clip-2">
<path clip-rule="nonzero" d="M 6 28 L 38 28 L 38 51.839844 L 6 51.839844 Z M 6 28 "/>
</clipPath>
</defs>
<path fill="none" stroke-width="0.79701" stroke-linecap="round" stroke-linejoin="miter" stroke="rgb(0%, 0%, 0%)" stroke-opacity="1" stroke-miterlimit="10" d="M -0.0018125 19.196344 L -0.0018125 -14.1435 " transform="matrix(1, 0, 0, -1, 22.119, 25.919)"/>
<path fill="none" stroke-width="0.79701" stroke-linecap="round" stroke-linejoin="miter" stroke="rgb(0%, 0%, 0%)" stroke-opacity="1" stroke-miterlimit="10" d="M -1.701031 20.899469 L -18.798688 20.899469 " transform="matrix(1, 0, 0, -1, 22.119, 25.919)"/>
<path fill="none" stroke-width="0.79701" stroke-linecap="round" stroke-linejoin="miter" stroke="rgb(0%, 0%, 0%)" stroke-opacity="1" stroke-miterlimit="10" d="M 18.798969 20.899469 L 1.701312 20.899469 " transform="matrix(1, 0, 0, -1, 22.119, 25.919)"/>
<path fill="none" stroke-width="0.79701" stroke-linecap="round" stroke-linejoin="miter" stroke="rgb(0%, 0%, 0%)" stroke-opacity="1" stroke-miterlimit="10" d="M 18.798969 20.899469 L 1.701312 20.899469 " transform="matrix(1, 0, 0, -1, 22.119, 25.919)"/>
<path fill="none" stroke-width="0.79701" stroke-linecap="round" stroke-linejoin="miter" stroke="rgb(0%, 0%, 0%)" stroke-opacity="1" stroke-miterlimit="10" d="M -0.0018125 0.82525 L -0.0018125 -14.1435 " transform="matrix(1, 0, 0, -1, 22.119, 25.919)"/>
<path fill="none" stroke-width="0.79701" stroke-linecap="round" stroke-linejoin="miter" stroke="rgb(0%, 0%, 0%)" stroke-opacity="1" stroke-miterlimit="10" d="M -1.701031 2.524469 L -18.798688 2.524469 " transform="matrix(1, 0, 0, -1, 22.119, 25.919)"/>
<path fill="none" stroke-width="0.79701" stroke-linecap="round" stroke-linejoin="miter" stroke="rgb(0%, 0%, 0%)" stroke-opacity="1" stroke-miterlimit="10" d="M 18.798969 2.524469 L 1.701312 2.524469 " transform="matrix(1, 0, 0, -1, 22.119, 25.919)"/>
<path fill="none" stroke-width="0.79701" stroke-linecap="round" stroke-linejoin="miter" stroke="rgb(0%, 0%, 0%)" stroke-opacity="1" stroke-miterlimit="10" d="M 18.798969 2.524469 L 1.701312 2.524469 " transform="matrix(1, 0, 0, -1, 22.119, 25.919)"/>
<path fill="none" stroke-width="0.79701" stroke-linecap="round" stroke-linejoin="miter" stroke="rgb(0%, 0%, 0%)" stroke-opacity="1" stroke-miterlimit="10" d="M -4.228375 -18.370062 L -18.798688 -18.370062 " transform="matrix(1, 0, 0, -1, 22.119, 25.919)"/>
<path fill="none" stroke-width="0.79701" stroke-linecap="round" stroke-linejoin="miter" stroke="rgb(0%, 0%, 0%)" stroke-opacity="1" stroke-miterlimit="10" d="M 18.798969 -18.370062 L 4.228656 -18.370062 " transform="matrix(1, 0, 0, -1, 22.119, 25.919)"/>
<path fill="none" stroke-width="0.79701" stroke-linecap="round" stroke-linejoin="miter" stroke="rgb(0%, 0%, 0%)" stroke-opacity="1" stroke-miterlimit="10" d="M 18.798969 -18.370062 L 4.228656 -18.370062 " transform="matrix(1, 0, 0, -1, 22.119, 25.919)"/>
<path fill-rule="nonzero" fill="rgb(0%, 0%, 0%)" fill-opacity="1" stroke-width="0.79701" stroke-linecap="butt" stroke-linejoin="miter" stroke="rgb(0%, 0%, 0%)" stroke-opacity="1" stroke-miterlimit="10" d="M 1.701312 0.00146875 C 1.701312 0.938969 0.939594 1.700688 -0.0018125 1.700688 C -0.939313 1.700688 -1.701031 0.938969 -1.701031 0.00146875 C -1.701031 -0.939937 -0.939313 -1.701656 -0.0018125 -1.701656 C 0.939594 -1.701656 1.701312 -0.939937 1.701312 0.00146875 Z M 1.701312 0.00146875 " transform="matrix(1, 0, 0, -1, 22.119, 5.021)"/>
<path fill-rule="nonzero" fill="rgb(0%, 0%, 0%)" fill-opacity="1" stroke-width="0.79701" stroke-linecap="butt" stroke-linejoin="miter" stroke="rgb(0%, 0%, 0%)" stroke-opacity="1" stroke-miterlimit="10" d="M 1.701313 0.001375 C 1.701313 0.938875 0.939594 1.700594 -0.0018125 1.700594 C -0.939312 1.700594 -1.701031 0.938875 -1.701031 0.001375 C -1.701031 -0.940031 -0.939312 -1.70175 -0.0018125 -1.70175 C 0.939594 -1.70175 1.701313 -0.940031 1.701313 0.001375 Z M 1.701313 0.001375 " transform="matrix(1, 0, 0, -1, 22.119, 23.392)"/>
<g clip-path="url(#clip-0)">
<g clip-path="url(#clip-1)">
<path fill="none" stroke-width="0.79701" stroke-linecap="butt" stroke-linejoin="miter" stroke="rgb(0%, 0%, 0%)" stroke-opacity="1" stroke-miterlimit="10" d="M -0.0018125 4.2275 L -0.0018125 -4.225625 M -4.228375 0.0009375 L 4.228656 0.0009375 " transform="matrix(1, 0, 0, -1, 22.119, 44.29)"/>
</g>
</g>
<g clip-path="url(#clip-2)">
<path fill="none" stroke-width="0.79701" stroke-linecap="butt" stroke-linejoin="miter" stroke="rgb(0%, 0%, 0%)" stroke-opacity="1" stroke-miterlimit="10" d="M 4.228656 0.0009375 C 4.228656 2.332969 2.334125 4.2275 -0.0018125 4.2275 C -2.333844 4.2275 -4.228375 2.332969 -4.228375 0.0009375 C -4.228375 -2.335 -2.333844 -4.225625 -0.0018125 -4.225625 C 2.334125 -4.225625 4.228656 -2.335 4.228656 0.0009375 Z M 4.228656 0.0009375 " transform="matrix(1, 0, 0, -1, 22.119, 44.29)"/>
</g>
</svg>
